PathFileType	4	(X/Y/Z)	RBDS026\RBDS026runT25.trc
DataRate	CameraRate	NumFrames	NumMarkers	Units	OrigDataRate	OrigDataStartFrame	OrigNumFrames
150.000000	150.000000	5	33	mm	150.000000	2812	4500
Frame#	Time	L.ASIS			L.Heel.Bottom			L.Heel.Lateral			L.Heel.Top			L.Iliac.Crest			L.MT1			L.MT5			L.PSIS			L.Shank.Bottom.Lateral			L.Shank.Bottom.Medial			L.Shank.Top.Lateral			L.Shank.Top.Medial			L.Thigh.Bottom.Lateral			L.Thigh.Bottom.Medial			L.Thigh.Top.Lateral			L.Thigh.Top.Medial			R.ASIS			R.ASY			R.Heel.Bottom			R.Heel.Lateral			R.Heel.Top			R.Iliac.Crest			R.MT1			R.MT5			R.PSIS			R.Shank.Bottom.Lateral			R.Shank.Bottom.Medial			R.Shank.Top.Lateral			R.Shank.Top.Medial			R.Thigh.Bottom.Lateral			R.Thigh.Bottom.Medial			R.Thigh.Top.Lateral			R.Thigh.Top.Medial			
		X1	Y1	Z1	X2	Y2	Z2	X3	Y3	Z3	X4	Y4	Z4	X5	Y5	Z5	X6	Y6	Z6	X7	Y7	Z7	X8	Y8	Z8	X9	Y9	Z9	X10	Y10	Z10	X11	Y11	Z11	X12	Y12	Z12	X13	Y13	Z13	X14	Y14	Z14	X15	Y15	Z15	X16	Y16	Z16	X17	Y17	Z17	X18	Y18	Z18	X19	Y19	Z19	X20	Y20	Z20	X21	Y21	Z21	X22	Y22	Z22	X23	Y23	Z23	X24	Y24	Z24	X25	Y25	Z25	X26	Y26	Z26	X27	Y27	Z27	X28	Y28	Z28	X29	Y29	Z29	X30	Y30	Z30	X31	Y31	Z31	X32	Y32	Z32	X33	Y33	Z33	

2813	18.74666666666667	2206.803548830846	1016.000539650881	864.4567745169841	1810.888500397767	64.77950417906629	972.0733326401407	1842.097767986212	78.2656837771892	920.6907822049653	1827.294179961158	109.9945079035776	969.0323222104253	2133.850399538776	1087.630630151785	821.1925808175123	2035.197629446167	46.87544482560135	983.1786265808732	1982.191829247824	42.9339490605152	880.7015580608395	2035.893938386574	1071.146782043411	941.3019958093485	1937.449355520272	179.1511670619345	893.492098339148	1898.809282610474	205.34838804508	913.99646334003	1972.117817910815	246.2608093637007	864.0159652400835	1932.680057274001	276.5041905381336	882.9697402628259	2102.35049692934	614.6113036090771	825.1462702353004	2042.83089501944	617.1329962473786	866.7881113834976	2094.087484158793	722.9639889110076	807.7590798248328	2039.970004174133	725.3986396059158	851.7795241457726	2202.017471809005	1027.916842151664	1109.162760609276	2028.729940422564	172.9589254771264	1135.151649270208	1861.478093040889	256.656896055938	1096.917257600907	1896.175369252398	258.9734932258332	1143.871720820778	1899.67984893663	282.4085484437156	1092.384026252489	2129.137057515527	1092.620951109701	1146.796534333382	2028.132656137961	106.668935208287	1098.967091102569	1997.830716925455	143.0832150372297	1200.735933974326	2034.486963508067	1070.185174024645	1038.993190146891	2015.494211684203	305.0362218456336	1159.519121314491	1984.169215765224	336.8882611840628	1126.861682747399	2065.515749470508	368.5513023818461	1171.186406224885	2034.601722769632	398.2171452822062	1138.857758126896	2268.347321459028	630.3687719567437	1171.083568434942	2205.703375532597	607.359866491532	1145.241888579677	2227.360479460644	732.5287400975385	1181.314384927774	2166.043246195517	709.315120594031	1161.181261835115	
2814	18.75333333333333	2206.170128420275	1019.136125753319	864.2690701862767	1796.3179840193	72.18413871014903	971.9337048262524	1827.95359142658	84.33751496477846	920.5026685632963	1813.969041924907	116.8237999550122	968.5990604150202	2135.089244581402	1092.273430676245	821.581685845449	2018.874819378948	46.6805766638893	983.3453792712727	1965.870158582992	43.86700827249602	880.7731815806048	2036.257952588394	1076.189307642569	941.6371996227394	1923.451235918576	184.3698319836138	893.0517132273378	1885.26003121411	210.6380542315417	914.2834253774503	1958.16443421559	251.4570399558185	863.6202273804956	1919.157055724369	281.7609167370717	883.2641793319889	2092.799308292414	619.2694196751042	825.3730334140641	2033.791514531611	623.3199563858751	867.6138958842823	2087.281593306468	727.859262060752	808.3032862993975	2033.55657477937	731.63162641887	852.780202006209	2202.791540120008	1033.246526593182	1108.703843655699	2049.893821313041	167.5635774740103	1133.59415920331	1878.363023723599	242.1683564941795	1095.286384423884	1912.802210326714	246.1847052952527	1142.302894198738	1915.123674136919	269.9540241696637	1090.857616608872	2130.017527173706	1099.131772443459	1146.870434428465	2052.965466571862	101.5611283769531	1097.119187052709	2020.455012127337	135.7828060587941	1198.946414686462	2035.062624974161	1075.898131729303	1039.390278843325	2029.816999646605	298.4858507580267	1158.132700758143	1996.854325659787	328.7952611560605	1125.628345993038	2076.540105592968	364.3347720289559	1170.124273668284	2044.081030366652	392.5930213519497	1137.983207445011	2272.059540598825	637.6800055886094	1171.104391141092	2209.31272876051	613.9867148837134	1146.359193377789	2230.426354749003	739.4697559094241	1181.519258406882	2169.038801549433	715.6883257884796	1162.276033894236	
2815	18.76	2205.699212541474	1022.365736074828	864.2307873114917	1782.292980479395	80.25769059326795	971.8099187658992	1814.338260651395	90.95397789114935	920.3236975270837	1801.330245936747	124.2198674311992	968.1816858987476	2136.242788510521	1097.084477472668	822.0487309808439	2002.789180977153	46.43864210187569	983.4189293309778	1949.801090271397	44.92227912188004	880.7688081588523	2036.74707107528	1081.302557303539	942.0439812064761	1909.942894095851	190.0115981310121	892.5220847524181	1872.280837391504	216.319018907893	914.605635448956	1944.655128862611	257.0943331125659	863.1424532633017	1906.1633771739	287.428856595454	883.6255005896335	2083.738885936102	624.2677136412094	825.3938563767394	2025.257633392404	629.7162624022616	868.1948935095113	2080.834950730001	733.0433068253454	808.7050404649913	2027.517605453206	738.0268980031866	853.6030525899041	2203.652358874333	1038.763315935033	1108.315264065091	2071.404455090037	162.3151528922168	1132.016805172954	1896.15527334058	227.4141768005735	1093.199119995762	1930.107994284013	233.1863888371273	1140.363953676967	1931.32555467996	257.1992099525096	1088.930416502194	2131.125421031324	1105.933395798041	1147.024252766641	2078.303455162859	96.78030124151147	1095.343477722653	2043.449650011194	128.7211486874778	1197.115760709867	2035.774229216194	1081.724535578685	1039.867269440104	2044.377140622234	291.7769315496337	1156.563047629246	2009.904710653216	320.4014356058664	1124.082342238626	2087.537280387078	359.8722881980879	1168.909306945005	2053.664227830116	386.5876687785884	1136.822952510389	2275.107740097291	644.787348443968	1171.123877334625	2212.242841461652	620.525405738368	1147.451633156799	2233.034277748883	746.2809260928652	1181.673978931305	2171.559731569374	722.0564116665734	1163.2606529078	
2816	18.76666666666667	2205.407128321274	1025.689857988934	864.3518326544589	1768.846161037856	88.91761922570453	971.6517099852872	1801.276264477518	98.04060785058456	920.1100523613273	1789.3983111422	132.0931229774147	967.7359006842744	2137.306012767174	1102.001004194103	822.6027215848934	1986.965253584519	46.1793902127511	983.3963361100582	1934.025086923036	46.11039865601169	880.6736128698464	2037.351609752151	1086.43460499933	942.5215998013957	1896.961962606548	196.0112293828765	891.8842201772395	1859.904216015395	222.3215767260332	914.9277745808802	1931.637923625985	263.1115606444706	862.578048756812	1893.74054877309	293.4441559473208	884.0363425127414	2075.201131035592	629.5447691610807	825.2301849203151	2017.264729480703	636.2550963799724	868.5705899538328	2074.758576833042	738.4566468851492	808.9765236893563	2021.873604871654	744.5237624054832	854.2788367405707	2204.576396238495	1044.398194350532	1108.004992225815	2093.215147320786	157.2918012216826	1130.410265997026	1914.847082760585	212.5438525068403	1090.704580393103	1948.094816350525	220.0971957297397	1138.091675906152	1948.28304156988	244.2803331081611	1086.643229580804	2132.407947819817	1112.879758619203	1147.249381570389	2104.066805944544	92.41678617212254	1093.629853298585	2066.777659582056	121.9760173768571	1195.249035674667	2036.613601676949	1087.594171939392	1040.424319153857	2059.172197133681	284.9592975705615	1154.840946302398	2023.344419019649	311.7899153339916	1122.256683972131	2098.53156497344	355.1753038085491	1167.569999796542	2063.399431913762	380.2387572214428	1135.408013982649	2277.458211825488	651.5645390579862	1171.124026265424	2214.457390718075	626.8591785721165	1148.475270514048	2235.137743571609	752.8430851208947	1181.760028097919	2173.562627208304	728.3021245369912	1164.0995576195	
2817	18.77333333333333	2205.302560745186	1029.111404984269	864.628219530956	1756.001907039496	98.07774968170401	971.4034851695421	1788.78325013779	105.5199021774891	919.813555723054	1778.179515109026	140.351727462065	967.2097335319206	2138.286670562378	1106.968448275299	823.2502674419752	1971.419472452667	45.94841240058815	983.2816024080407	1918.574654601357	47.44627819526146	880.4791430538562	2038.05909689701	1091.535194620375	943.0659083819797	1884.54154061131	202.2946527582307	891.120815180593	1848.150083598467	228.5677941878876	915.2052828052708	1919.158267180637	269.4382577320064	861.9239815427148	1881.92075196553	299.7340495286261	884.4688445457273	2067.197350625235	635.0375100190839	824.924701675382	2009.832163161961	642.8768589856081	868.8075706080217	2069.053113907012	744.0374755337095	809.1454467522531	2016.638694309788	751.0674744372117	854.8598097682921	2205.541815126909	1050.071097575918	1107.774589997024	2115.271676469326	152.5705706800657	1128.745799334459	1934.399219619641	197.7152854477892	1087.867328500525	1966.747406355662	207.041059942834	1135.534401436994	1965.967203148972	231.3392584024569	1084.052680962818	2133.802789235063	1119.827509651184	1147.535441483461	2130.154670836796	88.55961347453879	1091.935679411473	2090.401188772075	115.6203965221834	1193.329415689514	2037.571883801618	1093.436173610003	1041.05869113488	2074.194924761917	278.0858636309495	1153.000428400284	2037.179206575252	303.0485832905375	1120.200396405482	2109.551600772677	350.2604273069534	1166.141845783582	2073.325686707234	373.5908524622704	1133.78937944655	2279.090858174613	657.8896825883636	1171.095813223994	2215.93368357121	632.8736959106714	1149.397051900836	2236.702364218087	759.0398089576062	1181.768269470493	2175.015152912327	734.3087728448943	1164.771045700855	
